<?xml version="1.0" encoding="utf-8"?>
<!-- Generator: Adobe Illustrator 23.0.3, SVG Export Plug-In . SVG Version: 6.00 Build 0)  -->
<svg version="1.1" id="Icons" xmlns="http://www.w3.org/2000/svg" xmlns:xlink="http://www.w3.org/1999/xlink" x="0px" y="0px"
	 viewBox="0 0 32 32" style="enable-background:new 0 0 32 32;" xml:space="preserve">
<style type="text/css">
	.st0{fill:none;stroke:#000000;stroke-width:2;stroke-linecap:round;stroke-linejoin:round;stroke-miterlimit:10;}
</style>
<path class="st0" d="M25,31H7c-1.1,0-2-0.9-2-2V3c0-1.1,0.9-2,2-2h18c1.1,0,2,0.9,2,2v26C27,30.1,26.1,31,25,31z"/>
<rect x="9" y="5" class="st0" width="14" height="4"/>
<circle class="st0" cx="16" cy="14" r="1"/>
<circle class="st0" cx="22" cy="14" r="1"/>
<circle class="st0" cx="10" cy="14" r="1"/>
<circle class="st0" cx="16" cy="20" r="1"/>
<circle class="st0" cx="22" cy="20" r="1"/>
<circle class="st0" cx="10" cy="20" r="1"/>
<circle class="st0" cx="16" cy="26" r="1"/>
<circle class="st0" cx="22" cy="26" r="1"/>
<circle class="st0" cx="10" cy="26" r="1"/>
</svg>
